<?xml version="1.0" encoding="UTF-8"?>
<svg viewBox="0 0 209.09 28.031" xmlns="http://www.w3.org/2000/svg">
<defs>
<style>.cls-1 {
        fill: #fff;
        fill-rule: evenodd;
      }</style>
</defs>
<path class="cls-1" transform="translate(-355.41 -402.19)" d="M410.472,406.986a12.982,12.982,0,0,0-2.76-1.32,8.828,8.828,0,0,0-2.712-.408,9.593,9.593,0,0,0-3.732.708,8.321,8.321,0,0,0-2.9,2,9.166,9.166,0,0,0-1.884,3.1,11.317,11.317,0,0,0-.672,3.984,10.774,10.774,0,0,0,.636,3.792,8.125,8.125,0,0,0,1.8,2.892,7.962,7.962,0,0,0,2.808,1.836,9.973,9.973,0,0,0,3.684.648,9.107,9.107,0,0,0,6.1-2.136l0.552,1.9h0.84V418H411.24q-1.32,4.92-5.952,4.92a5.535,5.535,0,0,1-4.656-2.076,9.525,9.525,0,0,1-1.608-5.94,13.6,13.6,0,0,1,.42-3.528,7.887,7.887,0,0,1,1.212-2.64,5.36,5.36,0,0,1,1.944-1.656,5.77,5.77,0,0,1,2.616-.576,5.687,5.687,0,0,1,3.648,1.2,5.914,5.914,0,0,1,2.04,3.312h0.888l-0.216-5.52H410.9Zm7.512,10.1c0-.368,0-0.675.012-0.924a5.04,5.04,0,0,1,.06-0.66,2.873,2.873,0,0,1,.132-0.516c0.056-.152.124-0.315,0.2-0.492a4.027,4.027,0,0,1,1.452-1.584,3.8,3.8,0,0,1,2.052-.576,2.191,2.191,0,0,1,2.088,1.14,8.52,8.52,0,0,1,.624,3.828v3.024a13.792,13.792,0,0,1-.06,1.452,1.772,1.772,0,0,1-.264.828,1.045,1.045,0,0,1-.612.4,5.011,5.011,0,0,1-1.08.132v0.84h6.36v-0.84a6.566,6.566,0,0,1-1.08-.144,0.945,0.945,0,0,1-.588-0.408,1.894,1.894,0,0,1-.252-0.876q-0.048-.562-0.048-1.548v-3.84a12.208,12.208,0,0,0-.192-2.436,3.738,3.738,0,0,0-.6-1.452,3.423,3.423,0,0,0-1.428-1.032,5.252,5.252,0,0,0-2.028-.384,5.626,5.626,0,0,0-1.332.168,7.226,7.226,0,0,0-1.308.456,6.734,6.734,0,0,0-1.164.684,4.266,4.266,0,0,0-.9.876h-0.1v-9.144l-4.416.912v0.816a6.885,6.885,0,0,1,.888.048,1.884,1.884,0,0,1,.576.156,0.763,0.763,0,0,1,.324.288,1.338,1.338,0,0,1,.156.468,7.85,7.85,0,0,1,.132,1.272q0.036,0.842.036,2.256V420.33a13.792,13.792,0,0,1-.06,1.452,1.682,1.682,0,0,1-.276.828,1.043,1.043,0,0,1-.624.384,7.2,7.2,0,0,1-1.1.144v0.84h6.384v-0.84a6.566,6.566,0,0,1-1.08-.144,0.957,0.957,0,0,1-.588-0.4,1.838,1.838,0,0,1-.252-0.876c-0.032-.384-0.048-0.9-0.048-1.56V417.09Zm22.008,0.36q0,0.5-.024.864t-0.072.648a4.262,4.262,0,0,1-.12.528,5.485,5.485,0,0,1-.192.528q-1.176,2.76-3.288,2.76a2.054,2.054,0,0,1-1.956-1.176,8.694,8.694,0,0,1-.612-3.792v-6.552h-4.344v0.84a7.15,7.15,0,0,1,1.092.18,1.019,1.019,0,0,1,.6.408,1.822,1.822,0,0,1,.252.864q0.048,0.564.048,1.548v3.816a13.261,13.261,0,0,0,.18,2.424,3.434,3.434,0,0,0,.588,1.464,3.221,3.221,0,0,0,1.428,1.032,5.164,5.164,0,0,0,1.956.384,4.908,4.908,0,0,0,2.484-.684,6.089,6.089,0,0,0,2.1-2.172h0.1l0.264,2.88,3.96-.288v-0.84q-0.552,0-.9-0.036a1.652,1.652,0,0,1-.564-0.144,0.763,0.763,0,0,1-.324-0.288,1.369,1.369,0,0,1-.156-0.492,11.477,11.477,0,0,1-.108-1.3q-0.036-.864-0.036-2.232v-7.368H438v0.84a7.15,7.15,0,0,1,1.092.18,1.019,1.019,0,0,1,.6.408,1.822,1.822,0,0,1,.252.864q0.048,0.564.048,1.548v2.352Zm9.672,1.9a15.032,15.032,0,0,1,.108-1.836,11.029,11.029,0,0,1,.3-1.572,6.041,6.041,0,0,1,1.008-2.1,1.75,1.75,0,0,1,1.3-.828,0.84,0.84,0,0,1,.4.1l0.384,0.2a3.581,3.581,0,0,0,.468.2,1.908,1.908,0,0,0,.648.1,1.492,1.492,0,0,0,1.032-.324,1.149,1.149,0,0,0,.36-0.9,1.234,1.234,0,0,0-.444-1,1.829,1.829,0,0,0-1.212-.372,3.289,3.289,0,0,0-1.224.24,4.952,4.952,0,0,0-1.152.66,5.625,5.625,0,0,0-1.02,1.02,6.041,6.041,0,0,0-.78,1.32h-0.1l-0.336-2.976-4.2.912v0.84a6.633,6.633,0,0,1,1.2.084,0.864,0.864,0,0,1,.636.516,3.666,3.666,0,0,1,.24,1.344q0.036,0.913.036,2.544v2.808a13.792,13.792,0,0,1-.06,1.452,1.682,1.682,0,0,1-.276.828,1.1,1.1,0,0,1-.624.4,5.126,5.126,0,0,1-1.1.132v0.84h6.384v-0.84a6.566,6.566,0,0,1-1.08-.144,0.957,0.957,0,0,1-.588-0.4,1.838,1.838,0,0,1-.252-0.876c-0.032-.384-0.048-0.9-0.048-1.56v-0.816Zm16.656,1.944a6.341,6.341,0,0,1-1.8,1.284,4.6,4.6,0,0,1-1.9.4,3.222,3.222,0,0,1-2.844-1.428,7.448,7.448,0,0,1-.972-4.188,7.065,7.065,0,0,1,.876-3.888,2.9,2.9,0,0,1,2.58-1.32,2.491,2.491,0,0,1,1.14.228,3.273,3.273,0,0,1,.924.78,3.235,3.235,0,0,0,.744.8,1.335,1.335,0,0,0,.72.18,1.292,1.292,0,0,0,.864-0.264,0.92,0.92,0,0,0,.312-0.744,1.353,1.353,0,0,0-.312-0.852,2.475,2.475,0,0,0-.876-0.672,5.631,5.631,0,0,0-1.332-.432,8.582,8.582,0,0,0-1.7-.156,7.636,7.636,0,0,0-2.724.468,5.9,5.9,0,0,0-2.112,1.344,6.042,6.042,0,0,0-1.356,2.112,7.612,7.612,0,0,0-.48,2.772,8.022,8.022,0,0,0,.42,2.664,5.948,5.948,0,0,0,1.188,2.052,5.312,5.312,0,0,0,1.836,1.32,5.766,5.766,0,0,0,2.34.468,7.4,7.4,0,0,0,2.952-.588,5.758,5.758,0,0,0,2.232-1.644Zm5.808-4.2c0-.368,0-0.675.012-0.924a5.04,5.04,0,0,1,.06-0.66,2.873,2.873,0,0,1,.132-0.516c0.056-.152.124-0.315,0.2-0.492a4.027,4.027,0,0,1,1.452-1.584,3.8,3.8,0,0,1,2.052-.576,2.191,2.191,0,0,1,2.088,1.14,8.52,8.52,0,0,1,.624,3.828v3.024a13.792,13.792,0,0,1-.06,1.452,1.772,1.772,0,0,1-.264.828,1.045,1.045,0,0,1-.612.4,5.011,5.011,0,0,1-1.08.132v0.84h6.36v-0.84a6.566,6.566,0,0,1-1.08-.144,0.945,0.945,0,0,1-.588-0.408,1.894,1.894,0,0,1-.252-0.876q-0.048-.562-0.048-1.548v-3.84a12.208,12.208,0,0,0-.192-2.436,3.738,3.738,0,0,0-.6-1.452,3.423,3.423,0,0,0-1.428-1.032,5.252,5.252,0,0,0-2.028-.384,5.626,5.626,0,0,0-1.332.168,7.226,7.226,0,0,0-1.308.456,6.734,6.734,0,0,0-1.164.684,4.266,4.266,0,0,0-.9.876h-0.1v-9.144l-4.416.912v0.816a6.885,6.885,0,0,1,.888.048,1.884,1.884,0,0,1,.576.156,0.763,0.763,0,0,1,.324.288,1.338,1.338,0,0,1,.156.468,7.85,7.85,0,0,1,.132,1.272q0.036,0.842.036,2.256V420.33a13.792,13.792,0,0,1-.06,1.452,1.682,1.682,0,0,1-.276.828,1.043,1.043,0,0,1-.624.384,7.2,7.2,0,0,1-1.1.144v0.84H474.1v-0.84a6.566,6.566,0,0,1-1.08-.144,0.957,0.957,0,0,1-.588-0.4,1.838,1.838,0,0,1-.252-0.876c-0.032-.384-0.048-0.9-0.048-1.56V417.09Zm31.14-10.368a9.1,9.1,0,0,0-5.124-1.224h-7.536v0.912a8.343,8.343,0,0,1,1.248.156,1.29,1.29,0,0,1,.732.408,1.663,1.663,0,0,1,.336.816,8.785,8.785,0,0,1,.084,1.356V420.33a7.9,7.9,0,0,1-.1,1.368,1.5,1.5,0,0,1-.384.816,1.63,1.63,0,0,1-.8.408,6.934,6.934,0,0,1-1.356.144v0.912h8.472v-0.912a11.215,11.215,0,0,1-1.74-.108,1.955,1.955,0,0,1-1.008-.42,1.515,1.515,0,0,1-.456-0.876,7.961,7.961,0,0,1-.108-1.452v-4.632h2.16a13.131,13.131,0,0,0,3.42-.384,6.267,6.267,0,0,0,2.28-1.08,4.123,4.123,0,0,0,1.284-1.7,6.029,6.029,0,0,0,.408-2.28A3.89,3.89,0,0,0,503.268,406.722Zm-7.74.312a0.361,0.361,0,0,1,.408-0.408h2.208a4.087,4.087,0,0,1,2.892.876,3.889,3.889,0,0,1,.924,2.916,3.648,3.648,0,0,1-1.164,3.036,5.686,5.686,0,0,1-3.564.924h-1.7v-7.344Zm14.952,12.312a15.032,15.032,0,0,1,.108-1.836,11.029,11.029,0,0,1,.3-1.572,6.041,6.041,0,0,1,1.008-2.1,1.75,1.75,0,0,1,1.3-.828,0.84,0.84,0,0,1,.4.1l0.384,0.2a3.581,3.581,0,0,0,.468.2,1.908,1.908,0,0,0,.648.1,1.492,1.492,0,0,0,1.032-.324,1.149,1.149,0,0,0,.36-0.9,1.234,1.234,0,0,0-.444-1,1.829,1.829,0,0,0-1.212-.372,3.289,3.289,0,0,0-1.224.24,4.952,4.952,0,0,0-1.152.66,5.625,5.625,0,0,0-1.02,1.02,6.041,6.041,0,0,0-.78,1.32h-0.1l-0.336-2.976-4.2.912v0.84a6.633,6.633,0,0,1,1.2.084,0.864,0.864,0,0,1,.636.516,3.666,3.666,0,0,1,.24,1.344q0.036,0.913.036,2.544v2.808a13.792,13.792,0,0,1-.06,1.452,1.682,1.682,0,0,1-.276.828,1.1,1.1,0,0,1-.624.4,5.126,5.126,0,0,1-1.1.132v0.84h6.384v-0.84a6.566,6.566,0,0,1-1.08-.144,0.957,0.957,0,0,1-.588-0.4,1.838,1.838,0,0,1-.252-0.876c-0.032-.384-0.048-0.9-0.048-1.56v-0.816Zm10.968-8.328-4.7.912v0.84a4.378,4.378,0,0,1,1.632.2,1.013,1.013,0,0,1,.552.756,6.167,6.167,0,0,1,.132,1.236q0.036,0.9.036,2.292v3.072a9.261,9.261,0,0,1-.084,1.38,1.688,1.688,0,0,1-.336.84,1.392,1.392,0,0,1-.708.432,4.876,4.876,0,0,1-1.176.156v0.84h6.888v-0.84a4.978,4.978,0,0,1-1.152-.144,1.209,1.209,0,0,1-.672-0.444,1.965,1.965,0,0,1-.324-0.888,10.625,10.625,0,0,1-.084-1.5v-9.144ZM519.12,407.2a1.507,1.507,0,1,0-.432-1.056A1.436,1.436,0,0,0,519.12,407.2Zm9.66,4.3a6.591,6.591,0,0,0-2.124,1.344,6.307,6.307,0,0,0-1.44,2.064,6.427,6.427,0,0,0-.528,2.616,6.8,6.8,0,0,0,.528,2.7,6.435,6.435,0,0,0,3.564,3.5,6.9,6.9,0,0,0,5.148-.012,6.809,6.809,0,0,0,2.148-1.392,6.557,6.557,0,0,0,2-4.8,6.219,6.219,0,0,0-.54-2.6,6.406,6.406,0,0,0-1.464-2.052A7.017,7.017,0,0,0,528.78,411.5Zm4.212,1.068a3.818,3.818,0,0,1,1.272,1.1,5.284,5.284,0,0,1,.816,1.692,7.765,7.765,0,0,1,.288,2.184,8.11,8.11,0,0,1-.288,2.232,5.4,5.4,0,0,1-.816,1.728,3.626,3.626,0,0,1-1.272,1.1,3.557,3.557,0,0,1-1.656.384,3.414,3.414,0,0,1-1.632-.384,3.635,3.635,0,0,1-1.236-1.092,5.22,5.22,0,0,1-.792-1.716,8.542,8.542,0,0,1-.276-2.256,8.21,8.21,0,0,1,.276-2.2,5.25,5.25,0,0,1,.792-1.7,3.619,3.619,0,0,1,1.248-1.092A3.635,3.635,0,0,1,532.992,412.566Zm10.944,6.78a15.032,15.032,0,0,1,.108-1.836,11.029,11.029,0,0,1,.3-1.572,6.041,6.041,0,0,1,1.008-2.1,1.75,1.75,0,0,1,1.3-.828,0.84,0.84,0,0,1,.4.1l0.384,0.2a3.581,3.581,0,0,0,.468.2,1.908,1.908,0,0,0,.648.1,1.492,1.492,0,0,0,1.032-.324,1.149,1.149,0,0,0,.36-0.9,1.234,1.234,0,0,0-.444-1,1.829,1.829,0,0,0-1.212-.372,3.289,3.289,0,0,0-1.224.24,4.952,4.952,0,0,0-1.152.66,5.625,5.625,0,0,0-1.02,1.02,6.041,6.041,0,0,0-.78,1.32h-0.1l-0.336-2.976-4.2.912v0.84a6.633,6.633,0,0,1,1.2.084,0.864,0.864,0,0,1,.636.516,3.666,3.666,0,0,1,.24,1.344q0.036,0.913.036,2.544v2.808a13.792,13.792,0,0,1-.06,1.452,1.682,1.682,0,0,1-.276.828,1.1,1.1,0,0,1-.624.4,5.126,5.126,0,0,1-1.1.132v0.84H545.9v-0.84a6.566,6.566,0,0,1-1.08-.144,0.957,0.957,0,0,1-.588-0.4,1.838,1.838,0,0,1-.252-0.876c-0.032-.384-0.048-0.9-0.048-1.56v-0.816Zm17.472-3.24q0.576-1.344.972-2.136a7.65,7.65,0,0,1,.72-1.212,1.6,1.6,0,0,1,.636-0.54,2.15,2.15,0,0,1,.768-0.12v-0.84h-5.28v0.84a2.794,2.794,0,0,1,1.332.216,0.912,0.912,0,0,1,.348.84,2.477,2.477,0,0,1-.036.408,3.7,3.7,0,0,1-.144.54q-0.108.324-.312,0.828t-0.516,1.3l-2.184,5.4h-0.12l-2.64-6.384a12.723,12.723,0,0,1-.48-1.368,4.054,4.054,0,0,1-.192-0.984q0-.792,1.608-0.792v-0.84h-6.36v0.84a5.185,5.185,0,0,1,.792.132,1.37,1.37,0,0,1,.564.312,2.572,2.572,0,0,1,.48.624c0.152,0.264.332,0.621,0.54,1.068l4.608,10.008-0.84,1.68a4.761,4.761,0,0,1-.444.768,2.255,2.255,0,0,1-.516.516,2.756,2.756,0,0,1-.648.336,4.3,4.3,0,0,1-.864.2,4.435,4.435,0,0,0-1.548.468,0.972,0.972,0,0,0-.42.876q0,1.128,1.512,1.128a3.62,3.62,0,0,0,3.432-2.472ZM368.6,402.547l3.2,7.588,8.2,0.7a0.647,0.647,0,0,1,.368,1.133l-6.221,5.394,1.864,8.023a0.646,0.646,0,0,1-.963.7L368,421.836l-7.049,4.254a0.646,0.646,0,0,1-.963-0.7l1.864-8.023-6.222-5.4a0.647,0.647,0,0,1,.368-1.133l8.2-.7,3.2-7.587A0.645,0.645,0,0,1,368.6,402.547Z"/>
</svg>
